<svg width="267" height="351" viewBox="0 0 267 351" xmlns="http://www.w3.org/2000/svg">
  <!-- Sky gradient -->
  <defs>
    <linearGradient id="skyGradient" x1="0%" y1="0%" x2="0%" y2="100%">
      <stop offset="0%" style="stop-color:#1a237e;stop-opacity:1" />
      <stop offset="100%" style="stop-color:#4a148c;stop-opacity:1" />
    </linearGradient>
  </defs>
  <rect width="100%" height="100%" fill="url(#skyGradient)" />

  <!-- Distant trees -->
  <path d="M0 100 Q 67 80 133 100 T 267 100 V 351 H 0 Z" fill="#1b5e20" />
  <path d="M0 150 Q 67 130 133 150 T 267 150 V 351 H 0 Z" fill="#2e7d32" />
  
  <!-- Mid-ground trees -->
  <path d="M0 200 Q 67 180 133 200 T 267 200 V 351 H 0 Z" fill="#388e3c" />
  <path d="M0 250 Q 67 230 133 250 T 267 250 V 351 H 0 Z" fill="#43a047" />
  
  <!-- Foreground trees -->
  <path d="M0 300 Q 67 280 133 300 T 267 300 V 351 H 0 Z" fill="#4caf50" />

  <!-- Mist effect -->
  <rect width="100%" height="100%" fill="url(#mistGradient)" />
  <defs>
    <linearGradient id="mistGradient" x1="0%" y1="0%" x2="0%" y2="100%">
      <stop offset="0%" style="stop-color:white;stop-opacity:0.1" />
      <stop offset="100%" style="stop-color:white;stop-opacity:0" />
    </linearGradient>
  </defs>

  <!-- Dark vignette effect -->
  <rect width="100%" height="100%" fill="url(#vignetteGradient)" />
  <defs>
    <radialGradient id="vignetteGradient" cx="50%" cy="50%" r="50%" fx="50%" fy="50%">
      <stop offset="0%" style="stop-color:black;stop-opacity:0" />
      <stop offset="100%" style="stop-color:black;stop-opacity:0.3" />
    </radialGradient>
  </defs>
</svg>